<svg xmlns="http://www.w3.org/2000/svg" xmlns:xlink="http://www.w3.org/1999/xlink" width="1920" height="1080" viewBox="0 -0 1920 1080" preserveAspectRatio="xMinYMin meet"><polyline id="1d8a1a21-efde-4fb1-a9f8-09a46d638158" points="-504.4871 1331.8175 45.484 1726.7669 -216.3548 2094.8751 -496.2704 2097.614 -504.4871 1331.8175 "  class="cls-2025868929" >  </polyline><polyline id="c964444c-696c-412e-95e6-55b3adea0a1d" points="2436.5437 1366.3277 2411.3458 1412.3412 2077.7478 1231.5738 2141.2903 1113.2533 2155.5326 1120.3744 2200.9983 1036.5641 2439.8304 1164.1968 2442.0215 1369.0666 2436.5437 1366.3277 "  class="cls-2025868929" >  </polyline><polyline id="db543c6a-0499-4112-9d1f-554c6eab37ef" points="2054.1933 1379.4744 1974.2174 1518.6105 1808.7878 1426.0357 1917.796 1231.026 2001.6064 1280.874 1972.0263 1331.8175 2054.1933 1379.4744 "  class="cls-2025868929" >  </polyline><polyline id="430d1b42-245b-4da3-9f7e-b5b4ee0a8636" points="2419.0147 -730.5742 2423.9448 -292.3502 2199.355 -405.1929 2265.0886 -539.399 2323.1532 -512.5577 2357.1156 -582.1258 2306.1721 -606.7759 2378.479 -750.842 2419.0147 -730.5742 "  class="cls-2025868929" >  </polyline><polyline id="a11e2669-6e6a-44c3-b05a-2cf162a5357c" points="1361.2516 764.3174 1247.3133 970.8305 1035.3225 853.0578 1189.7964 572.5944 1334.4103 651.4748 1293.3268 725.9728 1361.2516 764.3174 "  class="cls-2025868929" >  </polyline><polyline id="420929cd-15a6-4903-8993-bf245f92925b" points="35.624 404.9738 26.8595 420.8594 -82.6965 360.0558 -30.6574 266.9332 -54.212 255.9776 23.5728 114.1026 247.067 238.9964 181.3334 357.3169 232.8248 384.1581 178.0468 483.8541 35.624 404.9738 "  class="cls-2025868929" >  </polyline><polyline id="bc61191b-65b6-4494-a36e-06d9d24a09ad" points="880.3007 229.6842 896.7341 236.2575 864.9629 293.7744 855.1028 289.94 880.3007 229.6842 "  class="cls-2025868929" >  </polyline><polyline id="4564e9ee-dddd-419e-b2f2-41ebdff538fd" points="263.5004 -808.3589 310.6095 -785.9 285.4116 -728.3831 236.6592 -753.0332 263.5004 -808.3589 "  class="cls-2025868929" >  </polyline><polyline id="f351ead0-ebed-40e3-87d6-450f49dd9249" points="416.3311 -14.6257 511.6448 33.0311 443.7201 169.9761 347.8586 120.1282 416.3311 -14.6257 "  class="cls-2025868929" >  </polyline><polyline id="1c36c594-e8d2-458b-bf86-ad1a44887eb6" points="477.6824 -727.8353 571.3528 -677.9873 516.5748 -580.4825 423.4522 -630.3304 477.6824 -727.8353 "  class="cls-2025868929" >  </polyline><polyline id="3a8dd9f1-3ffa-4fa9-98bd-fb3dc526ea2e" points="2285.9042 -945.8517 2398.1991 -889.4304 2334.6566 -768.9188 2222.3617 -827.5312 2285.9042 -945.8517 "  class="cls-2025868929" >  </polyline><polyline id="688f52e6-403d-4b93-a62e-667359bb918e" points="-291.9485 -504.8888 158.3267 -254.0056 81.0897 -119.2517 -366.9943 -370.6827 -291.9485 -504.8888 "  class="cls-2025868929" >  </polyline><polyline id="0f853ff6-563f-4c06-aadd-76a7aeaa80a9" points="2423.9448 669.5515 2346.7078 806.4965 2090.3467 661.8826 2220.1706 434.5539 2240.9862 447.7006 2357.6634 511.2431 2305.0765 604.3657 2423.9448 669.5515 "  class="cls-2025868929" >  </polyline><polyline id="5cc5ac40-ee53-4fa5-846d-d3016bb59d51" points="2042.1421 514.5298 1998.8675 584.0978 1772.6343 441.675 1865.7569 294.87 1824.1257 268.0288 1876.7125 189.1484 1906.8404 207.2252 1927.6561 220.9197 1939.1595 204.4863 1995.033 238.4486 1988.4597 249.952 2062.9577 297.6089 2051.4544 311.8512 2133.0736 352.3869 2058.0277 466.3251 2032.2821 450.4395 2004.8931 492.0708 2042.1421 514.5298 "  class="cls-2025868929" >  </polyline><polyline id="50f98f41-78cc-4013-bea5-5d6600950e01" points="2220.7184 -765.0843 2116.0924 -575.0047 1962.1662 -661.0061 2084.8689 -886.1437 2112.8057 -870.2581 2124.3091 -893.2648 2150.0548 -879.5703 2227.2917 -836.8435 2194.9727 -778.7788 2220.7184 -765.0843 "  class="cls-2025868929" >  </polyline><polyline id="7e1d7198-19a7-4116-9d71-9e7e2195a2fc" points="1829.6035 978.4994 1697.5885 1205.8281 1454.9219 1067.7876 1586.9369 837.72 1652.1227 873.8734 1829.6035 978.4994 "  class="cls-2025868929" >  </polyline><polyline id="4b249ee4-48b4-4b0d-99f4-6c621280d5ac" points="1797.2844 -73.2382 1823.0301 -59.5437 1704.7096 174.3584 1546.4012 93.2869 1605.0137 -20.1035 1630.7593 -6.9568 1683.3462 -113.2261 1762.2265 -70.4993 1769.3477 -86.9327 1797.2844 -73.2382 "  class="cls-2025868929" >  </polyline><polyline id="de665ff2-a7cd-4636-b511-b816c5c9b82c" points="2005.9886 -1012.6809 1927.6561 -868.067 1664.7217 -1009.3942 2005.9886 -1012.6809 "  class="cls-2025868929" >  </polyline><polyline id="ad791fb8-ea6d-4ba9-a927-e43da4b46f2c" points="790.4648 761.0308 730.209 727.0684 862.224 504.1219 1023.2713 599.4357 891.2563 822.3821 790.4648 761.0308 "  class="cls-2025868929" >  </polyline><polyline id="7b7539d2-ab4b-46f7-a34d-edddca5d210c" points="495.7592 693.106 453.5801 670.0993 255.2837 557.2566 487.5425 148.6127 601.4807 214.3463 526.4348 346.3613 650.2331 419.216 495.7592 693.106 "  class="cls-2025868929" >  </polyline><polyline id="fc2d97c4-8844-4131-8d84-120e1279bdb4" points="1155.2863 -22.2946 1200.752 -103.9139 1124.0628 -144.4496 1256.0778 -390.4028 1356.3215 -336.1726 1360.7038 -333.9815 1365.086 60.4201 1353.5826 81.7836 1155.2863 -22.2946 "  class="cls-2025868929" >  </polyline><polyline id="040f5dc9-73fd-42f3-b6f8-c1bb4b7f51fa" points="1168.9808 -686.7518 1244.0266 -639.0949 1107.0816 -413.9573 953.1555 -509.2711 1090.1005 -734.4086 1168.9808 -686.7518 "  class="cls-2025868929" >  </polyline><polyline id="b1ee67f4-03ef-405f-bb18-a547e2cb1486" points="972.8755 -855.468 858.9373 -637.4516 737.8779 -700.4463 851.2684 -921.2016 874.8229 -907.5071 972.8755 -855.468 "  class="cls-2025868929" >  </polyline><polyline id="3c91524e-d7ff-4f31-81c4-2310e54281a1" points="-481.4804 -29.9636 -515.4427 46.1779 -518.7294 45.0823 -520.9205 -183.8897 -400.9567 -128.0162 -453.5436 -16.8168 -481.4804 -29.9636 "  class="cls-2025868929" >  </polyline><polyline id="9fa68211-6392-412d-a8ea-509a730e9223" points="67.943 -991.8652 50.9618 -960.6418 -5.4595 -991.3175 67.943 -991.8652 "  class="cls-2025868929" >  </polyline><polyline id="80592c1d-0206-44b7-9059-94429c47276a" points="402.6366 -636.9038 347.8586 -537.2078 270.6216 -580.4825 325.3996 -680.1784 316.0873 -684.5607 357.1708 -756.3198 370.8653 -749.7465 386.7509 -782.0655 408.1144 -771.1099 475.4913 -732.2175 416.3311 -628.1393 402.6366 -636.9038 "  class="cls-2025868929" >  </polyline><polyline id="639f0b54-2fd5-44bd-97ce-372369384996" points="-222.9282 -773.301 -304.5474 -627.0438 -451.3525 -710.8541 -367.5421 -857.1114 -351.1087 -848.3469 -222.9282 -773.301 "  class="cls-2025868929" >  </polyline><polyline id="8684f13a-fc1d-483f-ae4f-9e86e95f5980" points="1892.5982 837.1722 1797.2844 782.3942 1645.5494 696.3927 1686.6329 629.0158 1931.4905 771.9864 1892.5982 837.1722 "  class="cls-2025868929" >  </polyline><polyline id="fa81584d-b334-4aa0-9d5b-3d452984808f" points="953.1555 -499.9588 921.3842 -435.3208 821.1405 -486.8121 855.6506 -549.8068 885.7785 -533.9212 953.1555 -499.9588 "  class="cls-2025868929" >  </polyline><polyline id="c4709d88-a082-4adf-b341-7255d80c9481" points="1801.1189 1165.2924 1906.2927 1226.6438 1849.3235 1324.1486 1744.1498 1262.7972 1801.1189 1165.2924 "  class="cls-2025868929" >  </polyline><polyline id="61a948f1-48d4-4e26-9564-6a1f443643b2" points="147.9189 -791.3778 161.6134 -828.079 115.0521 -848.3469 173.6645 -992.9608 275.5516 -994.0564 282.6727 -990.7697 216.9391 -828.6268 231.1814 -822.0534 208.7224 -766.7277 147.9189 -791.3778 "  class="cls-2025868929" >  </polyline><polyline id="7d198932-be92-4b18-af51-22f30753c7a4" points="860.5806 1625.4276 944.391 1682.3967 896.1863 1747.0348 814.5671 1690.6134 860.5806 1625.4276 "  class="cls-2025868929" >  </polyline><polyline id="c63e0d92-94db-47e1-906e-df5ae192758a" points="205.4358 1953 200.5057 1932.1844 197.7668 1902.6043 262.9527 1892.7442 270.0738 1943.14 205.4358 1953 "  class="cls-2025868929" >  </polyline><polyline id="77e86c2e-69e4-4643-9b28-6a29311ee46f" points="459.6057 1862.6163 594.9073 1955.7389 547.2505 2023.1159 411.401 1927.8022 459.6057 1862.6163 "  class="cls-2025868929" >  </polyline><polyline id="5bd4a8bd-d64f-434a-b522-d3edd196d337" points="710.4889 -248.5278 959.7288 -105.5572 864.4151 61.5157 614.6274 -80.9071 710.4889 -248.5278 "  class="cls-2025868929" >  </polyline><polyline id="2d4421e6-a643-4119-a7cd-b33fa16b52bd" points="160.5178 -505.4366 103.5487 -398.6195 -94.7477 -504.8888 -12.5807 -660.4583 80.5419 -610.6104 55.344 -561.8579 160.5178 -505.4366 "  class="cls-2025868929" >  </polyline><polyline id="6589ee1f-eb09-4a86-a1b8-39793a29bd03" points="1204.0387 -664.2928 1244.0266 -639.0949 1205.1343 -576.648 1204.0387 -664.2928 "  class="cls-2025868929" >  </polyline><polyline id="e51a974d-6dfb-4202-a9f0-2bfe7d752c96" points="1361.2516 764.3174 1247.3133 970.8305 1221.5677 957.136 1217.7332 587.9323 1334.4103 651.4748 1293.3268 725.9728 1361.2516 764.3174 "  class="cls-2025868929" >  </polyline><polyline id="45d20268-7a8c-429b-90ae-71f1494610b0" points="1394.6661 2.9032 1353.5826 81.7836 1211.7076 6.7377 1207.8732 -302.2102 1256.0778 -390.4028 1356.3215 -336.1726 1568.3124 -222.7821 1436.2974 25.3622 1394.6661 2.9032 "  class="cls-2025868929" >  </polyline><polyline id="2701ab55-e81f-4dd3-9f38-c5c461ec091d" points="1156.3818 286.6533 1113.655 393.4704 864.9629 293.7744 896.7341 236.2575 936.1743 252.1431 956.4421 201.1996 1016.6979 223.6586 1030.3924 188.6007 1090.6482 215.9897 1075.3104 255.4298 1156.3818 286.6533 "  class="cls-2025868929" >  </polyline><text id="b67f32aa-f31b-4a8e-b2c3-10e40b570e45" x="1039.6598" y="-455.3744" transform = "rotate(0 1039.6598 -455.3744)" class="cls-1195165870" > SF-3 </text><polyline id="39e343c1-d336-4770-b3bb-e401c0c849ab" points="607.5063 -103.9139 791.8342 -6.9568 976.1622 90.0003 1217.1854 -335.8987 1458.2086 -761.7976 1311.1297 -882.857 1164.0508 -1003.9164 1134.4706 -1003.6425 1104.8905 -1003.3686 856.1984 -553.6412 607.5063 -103.9139 "  class="cls-2025350060" >  </polyline><text id="7f65f072-335c-45d8-9cae-ccc95afb728c" x="1562.8346" y="-975.4318" transform = "rotate(0 1562.8346 -975.4318)" class="cls-1195165870" > SF-3 </text><polyline id="5ad15148-969b-4a30-ac84-2a60706abac3" points="1474.0942 -1007.2031 1526.6811 -958.7246 1579.268 -910.246 1607.2048 -959.5462 1635.1416 -1008.8464 1554.6179 -1008.0248 1474.0942 -1007.2031 "  class="cls-2025350060" >  </polyline><text id="77650ac7-3677-4fa0-bc23-850a2901827a" x="-444.0784" y="-865.3185" transform = "rotate(0 -444.0784 -865.3185)" class="cls-1195165870" > SF-3 </text><polyline id="e906b9ef-19f6-475f-a8f4-896b1afa3689" points="-526.9461 -710.8541 -494.901 -693.599 -462.8558 -676.344 -378.7716 -832.1874 -294.6874 -988.0308 -412.1862 -986.6613 -529.685 -985.2919 -528.3156 -848.073 -526.9461 -710.8541 "  class="cls-2025350060" >  </polyline><text id="882a333b-0bf9-45bc-b5f0-70bcca18c6f0" x="1320.2766" y="728.3526" transform = "rotate(0 1320.2766 728.3526)" class="cls-1195165870" > SF-3 </text><polyline id="9e030485-be04-45c0-9948-7ac63aa73753" points="939.461 990.0028 1118.8589 1086.1382 1298.2569 1182.2736 1502.031 823.7516 1705.8052 465.2296 1519.2861 372.6547 1332.767 280.0799 1136.114 635.0414 939.461 990.0028 "  class="cls-2025350060" >  </polyline><text id="08d33321-9ee9-4edb-a66c-4616a6b3c605" x="-123.8855" y="-34.8376" transform = "rotate(0 -123.8855 -34.8376)" class="cls-1195165870" > SF-3 </text><polyline id="65e2fc53-b732-4d07-afa3-3e6e3bfe3d38" points="-496.8182 225.8497 -319.6114 320.8895 -142.4045 415.9294 52.879 59.8724 248.1626 -296.1846 72.3252 -391.2245 -103.5122 -486.2643 -300.1652 -130.2073 -496.8182 225.8497 "  class="cls-2025350060" >  </polyline><text id="31f9522f-9cd6-4243-a26b-675c25041d18" x="1378.5502" y="-216.5093" transform = "rotate(0 1378.5502 -216.5093)" class="cls-1195165870" > SF-3 </text><polyline id="a3346fcc-f5ad-4fa3-9b28-29fd8621c676" points="976.1622 90.0003 1155.5602 185.0401 1334.9581 280.0799 1546.6751 -90.2194 1758.3921 -460.5186 1608.3003 -611.1581 1458.2086 -761.7976 1217.1854 -335.8987 976.1622 90.0003 "  class="cls-2025350060" >  </polyline><text id="ac1a4442-4232-4642-9245-62080ba63144" x="959.3284" y="540.2696" transform = "rotate(0 959.3284 540.2696)" class="cls-1195165870" > SF-3 </text><polyline id="5c2f164b-1fc2-49e3-ac21-62266c3e732b" points="1332.767 280.0799 1136.114 635.0414 939.461 990.0028 763.3497 897.428 587.2384 804.8532 781.7003 447.4267 976.1622 90.0003 1154.4646 185.0401 1332.767 280.0799 "  class="cls-2025350060" >  </polyline><text id="03b6cff1-fa0f-4df9-b782-33950b5d2590" x="-505.0349" y="-650.7809" transform = "rotate(0 -505.0349 -650.7809)" class="cls-1195165870" > SF-3 </text><polyline id="11819a73-e265-4403-a642-22e238fbcd0b" points="-525.3028 -565.1446 -494.0793 -620.7443 -462.8558 -676.344 -494.901 -693.599 -526.9461 -710.8541 -526.1244 -637.9994 -525.3028 -565.1446 "  class="cls-2025350060" >  </polyline><text id="3e6b1a06-c4e5-4a29-b456-45d7e83a79d9" x="233.6153" y="157.5192" transform = "rotate(0 233.6153 157.5192)" class="cls-1195165870" > SF-3 </text><polyline id="7cdea7d5-4daf-4a92-9b4b-fffc6636e2cb" points="-142.4045 415.9294 40.554 513.1603 223.5125 610.3913 415.5094 253.2387 607.5063 -103.9139 427.8344 -200.0493 248.1626 -296.1846 52.879 59.8724 -142.4045 415.9294 "  class="cls-2025350060" >  </polyline><text id="28666d01-521f-4112-8e4b-2e8904941c85" x="1683.4179" y="925.3499" transform = "rotate(0 1683.4179 925.3499)" class="cls-1195165870" > SF-3 </text><polyline id="5c84354b-c363-4122-bbff-e12f8d438a3a" points="1298.2569 1182.2736 1485.8715 1281.6956 1673.4862 1381.1177 1741.6848 1253.7589 1809.8834 1126.4 1899.7193 965.0788 1989.5552 803.7576 2025.9826 735.2851 2062.41 666.8126 1884.1076 566.0211 1705.8052 465.2296 1502.031 823.7516 1298.2569 1182.2736 "  class="cls-2025350060" >  </polyline><text id="ea276a69-5eb0-4941-a8b0-66e9a1dd177c" x="360.0149" y="1608.1473" transform = "rotate(0 360.0149 1608.1473)" class="cls-1195165870" > SF-3 </text><polyline id="f9c09c09-dd16-4999-9471-7b1237533c02" points="-496.2704 2097.614 798.6815 2083.6456 2093.6334 2069.6772 1233.3449 1605.7075 373.0564 1141.7379 -69.5498 896.6063 -512.156 651.4748 -504.2132 1374.5444 -496.2704 2097.614 "  class="cls-2025350060" >  </polyline><text id="ca42326b-bd1c-4275-bccb-380db671886a" x="251.0096" y="-690.3413" transform = "rotate(0 251.0096 -690.3413)" class="cls-1195165870" > SF-3 </text><polyline id="a2b944dc-93c5-4e5b-a096-f70f67cddb9c" points="-101.321 -486.2643 73.4208 -391.2245 248.1626 -296.1846 319.9218 -423.8174 391.681 -551.4501 512.4664 -774.6705 633.2519 -997.8908 405.6493 -995.4258 178.0468 -992.9608 38.3629 -739.6126 -101.321 -486.2643 "  class="cls-2025350060" >  </polyline><text id="f2a8ed90-1ac5-403d-b741-838a3b4edeaf" x="1702.1792" y="33.2301" transform = "rotate(0 1702.1792 33.2301)" class="cls-1195165870" > SF-3 </text><polyline id="fd0a75da-51bd-45f6-a0d9-418cfffb11a5" points="1334.9581 280.0799 1520.3816 372.6547 1705.8052 465.2296 1871.5086 161.2117 2037.2121 -142.8062 1897.8021 -301.6624 1758.3921 -460.5186 1546.6751 -90.2194 1334.9581 280.0799 "  class="cls-2025350060" >  </polyline><text id="155060da-9a07-42f3-a007-ac6621649207" x="1805.4163" y="-870.7006" transform = "rotate(0 1805.4163 -870.7006)" class="cls-1195165870" > SF-3 </text><polyline id="ac84d782-2b0d-4827-927e-1814c8f317c1" points="1579.268 -908.0549 1698.1363 -759.3326 1817.0045 -610.6104 1936.6944 -811.9195 2056.3844 -1013.2287 1846.3107 -1011.0375 1636.2371 -1008.8464 1607.7526 -958.4507 1579.268 -908.0549 "  class="cls-2025350060" >  </polyline><text id="72c3747e-dba7-4fce-89f0-0e3e0867f7e5" x="-153.551" y="-781.9699" transform = "rotate(0 -153.551 -781.9699)" class="cls-1195165870" > SF-3 </text><polyline id="f90b9026-5154-4a19-88ba-ae43753ad123" points="-462.8558 -676.344 -284.5535 -581.3041 -106.2511 -486.2643 -103.7861 -486.2643 -101.321 -486.2643 38.3629 -739.6126 178.0468 -992.9608 -58.3203 -990.4958 -294.6874 -988.0308 -378.7716 -832.1874 -462.8558 -676.344 "  class="cls-2025350060" >  </polyline><text id="06b26690-46c5-456f-a139-aa716806badb" x="658.0467" y="-598.8304" transform = "rotate(0 658.0467 -598.8304)" class="cls-1195165870" > SF-3 </text><polyline id="17abdcd0-2d1d-4037-96f1-97f6cda0f4a2" points="248.1626 -296.1846 427.8344 -200.0493 607.5063 -103.9139 856.1984 -553.6412 1104.8905 -1003.3686 869.0712 -1000.6297 633.2519 -997.8908 512.4664 -774.6705 391.681 -551.4501 319.9218 -423.8174 248.1626 -296.1846 "  class="cls-2025350060" >  </polyline><text id="36242d42-4c20-440a-8bb4-495a499caa9d" x="599.0265" y="349.8028" transform = "rotate(0 599.0265 349.8028)" class="cls-1195165870" > SF-3 </text><polyline id="a83bd59e-0b11-461f-b5f7-13b06b513f5b" points="223.5125 610.3913 405.3755 707.6222 587.2384 804.8532 781.7003 447.4267 976.1622 90.0003 791.8342 -6.9568 607.5063 -103.9139 415.5094 253.2387 223.5125 610.3913 "  class="cls-2025350060" >  </polyline><text id="33b0338d-c4ba-464c-ba96-d5f9bdee7aa6" x="-379.0251" y="-305.3164" transform = "rotate(0 -379.0251 -305.3164)" class="cls-1195165870" > SF-3 </text><polyline id="6ad87403-f46d-414a-a2b6-1b2420a57e3d" points="-516.5383 215.4419 -506.6782 220.6458 -496.8182 225.8497 -300.1652 -130.2073 -103.5122 -486.2643 -283.184 -581.3041 -462.8558 -676.344 -494.0793 -620.7443 -525.3028 -565.1446 -520.9205 -174.8514 -516.5383 215.4419 "  class="cls-2025350060" >  </polyline><text id="f83164f6-85c1-41a0-ad8e-09c3fd606569" x="1378.5502" y="-216.5093" transform = "rotate(0 1378.5502 -216.5093)" class="cls-1195165870" > SF-3 </text><polyline id="c4197c49-39a3-410e-bdcb-0f453073cb6d" points="976.1622 90.0003 1155.5602 185.0401 1334.9581 280.0799 1546.6751 -90.2194 1758.3921 -460.5186 1608.3003 -611.1581 1458.2086 -761.7976 1217.1854 -335.8987 976.1622 90.0003 "  class="cls-2025350060" >  </polyline><text id="11998310-be54-4f70-b19a-a459f5a3f124" x="959.3284" y="540.2696" transform = "rotate(0 959.3284 540.2696)" class="cls-1195165870" > SF-3 </text><polyline id="d1a58146-492e-4c5b-8054-686f4ce9c73d" points="1332.767 280.0799 1136.114 635.0414 939.461 990.0028 763.3497 897.428 587.2384 804.8532 781.7003 447.4267 976.1622 90.0003 1154.4646 185.0401 1332.767 280.0799 "  class="cls-2025350060" >  </polyline><text id="2ebb5f21-cf31-4803-a172-168e0b23295b" x="1683.4179" y="925.3499" transform = "rotate(0 1683.4179 925.3499)" class="cls-1195165870" > SF-3 </text><polyline id="f2770a14-3392-4161-92de-d2c64cb228e3" points="1298.2569 1182.2736 1485.8715 1281.6956 1673.4862 1381.1177 1741.6848 1253.7589 1809.8834 1126.4 1899.7193 965.0788 1989.5552 803.7576 2025.9826 735.2851 2062.41 666.8126 1884.1076 566.0211 1705.8052 465.2296 1502.031 823.7516 1298.2569 1182.2736 "  class="cls-2025350060" >  </polyline><text id="30083323-78f7-4f5f-9d98-0e20ff4b2219" x="360.0149" y="1608.1473" transform = "rotate(0 360.0149 1608.1473)" class="cls-1195165870" > SF-3 </text><polyline id="c9024c3c-30ec-49c4-988a-cafd3a974827" points="-496.2704 2097.614 798.6815 2083.6456 2093.6334 2069.6772 1233.3449 1605.7075 373.0564 1141.7379 -69.5498 896.6063 -512.156 651.4748 -504.2132 1374.5444 -496.2704 2097.614 "  class="cls-2025350060" >  </polyline><text id="055a99e4-8cb8-4230-bd63-afe0c9d69d92" x="1702.1792" y="33.2301" transform = "rotate(0 1702.1792 33.2301)" class="cls-1195165870" > SF-3 </text><polyline id="f6dbaf84-7402-4edb-b39c-98cba461e50f" points="1334.9581 280.0799 1520.3816 372.6547 1705.8052 465.2296 1871.5086 161.2117 2037.2121 -142.8062 1897.8021 -301.6624 1758.3921 -460.5186 1546.6751 -90.2194 1334.9581 280.0799 "  class="cls-2025350060" >  </polyline><text id="3c554a76-b42d-420c-9fb3-1e6772537624" x="1805.4163" y="-870.7006" transform = "rotate(0 1805.4163 -870.7006)" class="cls-1195165870" > SF-3 </text><polyline id="804e15ea-4e99-49f0-9e94-af8956bc7175" points="1579.268 -908.0549 1698.1363 -759.3326 1817.0045 -610.6104 1936.6944 -811.9195 2056.3844 -1013.2287 1846.3107 -1011.0375 1636.2371 -1008.8464 1607.7526 -958.4507 1579.268 -908.0549 "  class="cls-2025350060" >  </polyline><text id="b6734561-582a-4ce7-b83a-ed594aa283e8" x="658.0467" y="-598.8304" transform = "rotate(0 658.0467 -598.8304)" class="cls-1195165870" > SF-3 </text><polyline id="aafc91bb-542d-4931-b3e6-ac45ab618d36" points="248.1626 -296.1846 427.8344 -200.0493 607.5063 -103.9139 856.1984 -553.6412 1104.8905 -1003.3686 869.0712 -1000.6297 633.2519 -997.8908 512.4664 -774.6705 391.681 -551.4501 319.9218 -423.8174 248.1626 -296.1846 "  class="cls-2025350060" >  </polyline><text id="b7bdc742-fa3f-4ba4-8378-2dcd55dcbd26" x="1039.6598" y="-455.3744" transform = "rotate(0 1039.6598 -455.3744)" class="cls-1195165870" > SF-3 </text><polyline id="54432d49-acc7-4222-be68-11395be26b42" points="607.5063 -103.9139 791.8342 -6.9568 976.1622 90.0003 1217.1854 -335.8987 1458.2086 -761.7976 1311.1297 -882.857 1164.0508 -1003.9164 1134.4706 -1003.6425 1104.8905 -1003.3686 856.1984 -553.6412 607.5063 -103.9139 "  class="cls-2025350060" >  </polyline><text id="649bb738-6ee9-4055-bf33-32e44506a273" x="1562.8346" y="-975.4318" transform = "rotate(0 1562.8346 -975.4318)" class="cls-1195165870" > SF-3 </text><polyline id="06a51dbe-44bd-45a6-907c-4db353ee416d" points="1474.0942 -1007.2031 1526.6811 -958.7246 1579.268 -910.246 1607.2048 -959.5462 1635.1416 -1008.8464 1554.6179 -1008.0248 1474.0942 -1007.2031 "  class="cls-2025350060" >  </polyline><text id="f6a3c2b8-cdac-4465-a86b-ced955add234" x="-444.0784" y="-865.3185" transform = "rotate(0 -444.0784 -865.3185)" class="cls-1195165870" > SF-3 </text><polyline id="5cf59df7-ad27-408e-89af-620466a10eca" points="-526.9461 -710.8541 -494.901 -693.599 -462.8558 -676.344 -378.7716 -832.1874 -294.6874 -988.0308 -412.1862 -986.6613 -529.685 -985.2919 -528.3156 -848.073 -526.9461 -710.8541 "  class="cls-2025350060" >  </polyline><text id="1aa66d89-5b9b-4aef-b794-ec8b05af20b8" x="2314.6269" y="-389.2622" transform = "rotate(0 2314.6269 -389.2622)" class="cls-1195165870" > SF-3 </text><polyline id="a015d736-8190-410b-8798-dce018869fa9" points="2102.9457 -316.4525 2245.9163 -169.0997 2388.8868 -21.7469 2407.5114 -54.3398 2426.1359 -86.9327 2422.0275 -470.3787 2417.9192 -853.8247 2260.4324 -585.1386 2102.9457 -316.4525 "  class="cls-2025350060" >  </polyline><text id="d0259d81-b0c7-4019-9e62-732dbb1b1792" x="360.0149" y="1608.1473" transform = "rotate(0 360.0149 1608.1473)" class="cls-1195165870" > SF-3 </text><polyline id="3ca81c16-eb92-430f-949d-095448ddc301" points="-496.2704 2097.614 798.6815 2083.6456 2093.6334 2069.6772 1233.3449 1605.7075 373.0564 1141.7379 -69.5498 896.6063 -512.156 651.4748 -504.2132 1374.5444 -496.2704 2097.614 "  class="cls-2025350060" >  </polyline><text id="ddbddd2a-1bb3-4af0-b263-c681f6e5eed6" x="1805.4163" y="-870.7006" transform = "rotate(0 1805.4163 -870.7006)" class="cls-1195165870" > SF-3 </text><polyline id="39ae77a7-8967-4991-9531-6bf50b996390" points="1579.268 -908.0549 1698.1363 -759.3326 1817.0045 -610.6104 1936.6944 -811.9195 2056.3844 -1013.2287 1846.3107 -1011.0375 1636.2371 -1008.8464 1607.7526 -958.4507 1579.268 -908.0549 "  class="cls-2025350060" >  </polyline><text id="0d2fb713-7ac4-44a1-b1bf-0f87f3158738" x="658.0467" y="-598.8304" transform = "rotate(0 658.0467 -598.8304)" class="cls-1195165870" > SF-3 </text><polyline id="527f05c5-4b55-4804-a460-b17e46f91aa6" points="248.1626 -296.1846 427.8344 -200.0493 607.5063 -103.9139 856.1984 -553.6412 1104.8905 -1003.3686 869.0712 -1000.6297 633.2519 -997.8908 512.4664 -774.6705 391.681 -551.4501 319.9218 -423.8174 248.1626 -296.1846 "  class="cls-2025350060" >  </polyline><text id="12d7e95e-a875-4073-ae96-b7ee88f1d6d5" x="2407.8765" y="-1007.5683" transform = "rotate(0 2407.8765 -1007.5683)" class="cls-1195165870" > SF-3 </text><polyline id="48084409-dc51-4560-8d5e-78685b3f6e96" points="2391.078 -1017.0631 2403.6769 -1002.547 2416.2758 -988.0308 2416.2758 -1002.8208 2416.2758 -1017.6109 2403.6769 -1017.337 2391.078 -1017.0631 "  class="cls-2025350060" >  </polyline><text id="1b6c3be0-740f-4229-a099-eaedfb77d9b7" x="2128.521" y="-724.7455" transform = "rotate(0 2128.521 -724.7455)" class="cls-1195165870" > SF-3 </text><polyline id="45dc9bf3-3460-4b78-b510-d774a9acd3bc" points="1817.0045 -610.6104 1959.9751 -463.5314 2102.9457 -316.4525 2260.4324 -585.1386 2417.9192 -853.8247 2417.0975 -920.9277 2416.2758 -988.0308 2403.6769 -1002.547 2391.078 -1017.0631 2223.7312 -1015.1459 2056.3844 -1013.2287 1936.6944 -811.9195 1817.0045 -610.6104 "  class="cls-2025350060" >  </polyline><text id="80d5ea86-54d4-44bf-b349-34ebd6a215df" x="1039.6598" y="-455.3744" transform = "rotate(0 1039.6598 -455.3744)" class="cls-1195165870" > SF-3 </text><polyline id="b694d77b-ea90-430b-9981-d7785e82d55f" points="607.5063 -103.9139 791.8342 -6.9568 976.1622 90.0003 1217.1854 -335.8987 1458.2086 -761.7976 1311.1297 -882.857 1164.0508 -1003.9164 1134.4706 -1003.6425 1104.8905 -1003.3686 856.1984 -553.6412 607.5063 -103.9139 "  class="cls-2025350060" >  </polyline><text id="bb020b0d-e659-4649-9574-834f86933eb5" x="1562.8346" y="-975.4318" transform = "rotate(0 1562.8346 -975.4318)" class="cls-1195165870" > SF-3 </text><polyline id="dbeed83a-240a-4ea3-b124-96c19481e07a" points="1474.0942 -1007.2031 1526.6811 -958.7246 1579.268 -910.246 1607.2048 -959.5462 1635.1416 -1008.8464 1554.6179 -1008.0248 1474.0942 -1007.2031 "  class="cls-2025350060" >  </polyline><text id="55e26a28-77dd-4656-a955-9545a482f8b4" x="2407.8765" y="-1007.5683" transform = "rotate(0 2407.8765 -1007.5683)" class="cls-1195165870" > SF-3 </text><polyline id="299e4e62-2ed8-4325-9476-669f2d3e0827" points="2391.078 -1017.0631 2403.6769 -1002.547 2416.2758 -988.0308 2416.2758 -1002.8208 2416.2758 -1017.6109 2403.6769 -1017.337 2391.078 -1017.0631 "  class="cls-2025350060" >  </polyline><text id="616e5b6d-6a11-450c-b97f-ea68094d4f52" x="2260.3734" y="629.7331" transform = "rotate(0 2260.3734 629.7331)" class="cls-1195165870" > SF-3 </text><polyline id="66d4a1d7-3326-4f27-b6d7-33f69f0ca475" points="1989.5552 803.7576 2144.577 884.0074 2299.5987 964.2571 2367.2495 844.0194 2434.9004 723.7817 2432.9831 544.1099 2431.0659 364.438 2370.8101 292.6789 2310.5543 220.9197 2186.4821 443.8661 2062.41 666.8126 2025.9826 735.2851 1989.5552 803.7576 "  class="cls-2025350060" >  </polyline><text id="8991c908-565f-407b-9217-a21344e586bf" x="2128.521" y="-724.7455" transform = "rotate(0 2128.521 -724.7455)" class="cls-1195165870" > SF-3 </text><polyline id="179ad466-0e67-468a-8407-60d4ddf32065" points="1817.0045 -610.6104 1959.9751 -463.5314 2102.9457 -316.4525 2260.4324 -585.1386 2417.9192 -853.8247 2417.0975 -920.9277 2416.2758 -988.0308 2403.6769 -1002.547 2391.078 -1017.0631 2223.7312 -1015.1459 2056.3844 -1013.2287 1936.6944 -811.9195 1817.0045 -610.6104 "  class="cls-2025350060" >  </polyline><text id="e64c44ef-3d92-4937-8a1a-d39bf35bdd50" x="1039.6598" y="-455.3744" transform = "rotate(0 1039.6598 -455.3744)" class="cls-1195165870" > SF-3 </text><polyline id="c700e458-517d-47b2-a9ef-b5247c47992b" points="607.5063 -103.9139 791.8342 -6.9568 976.1622 90.0003 1217.1854 -335.8987 1458.2086 -761.7976 1311.1297 -882.857 1164.0508 -1003.9164 1134.4706 -1003.6425 1104.8905 -1003.3686 856.1984 -553.6412 607.5063 -103.9139 "  class="cls-2025350060" >  </polyline><text id="6ad7396e-a9e0-498f-8e9f-c4b195cb36ac" x="1562.8346" y="-975.4318" transform = "rotate(0 1562.8346 -975.4318)" class="cls-1195165870" > SF-3 </text><polyline id="dae12561-7a62-45a2-ae05-787fed3a1265" points="1474.0942 -1007.2031 1526.6811 -958.7246 1579.268 -910.246 1607.2048 -959.5462 1635.1416 -1008.8464 1554.6179 -1008.0248 1474.0942 -1007.2031 "  class="cls-2025350060" >  </polyline><text id="74e7bc51-05b4-42eb-ba6c-73bfeb8379fc" x="1320.2766" y="728.3526" transform = "rotate(0 1320.2766 728.3526)" class="cls-1195165870" > SF-3 </text><polyline id="beaa556c-76a7-4d9e-9702-b35dbb57fc54" points="939.461 990.0028 1118.8589 1086.1382 1298.2569 1182.2736 1502.031 823.7516 1705.8052 465.2296 1519.2861 372.6547 1332.767 280.0799 1136.114 635.0414 939.461 990.0028 "  class="cls-2025350060" >  </polyline><text id="531fb4fc-285d-460d-b00e-8daa3c2552d6" x="2390.8954" y="909.6617" transform = "rotate(0 2390.8954 909.6617)" class="cls-1195165870" > SF-3 </text><polyline id="d199010f-0bbc-4dbd-a2d6-aebe21d3724c" points="2299.5987 964.2571 2368.8929 1002.6017 2438.187 1040.9463 2436.5437 882.364 2434.9004 723.7817 2367.2495 844.0194 2299.5987 964.2571 "  class="cls-2025350060" >  </polyline><text id="cc47da49-9cc8-4607-b380-6571a6518fa4" x="2414.0847" y="-30.1462" transform = "rotate(0 2414.0847 -30.1462)" class="cls-1195165870" > SF-3 </text><polyline id="934759f7-d678-4fa4-b019-83768cfd16e9" points="2388.8868 -21.7469 2408.0591 -1.7529 2427.2314 18.2411 2426.6837 -34.3458 2426.1359 -86.9327 2407.5114 -54.3398 2388.8868 -21.7469 "  class="cls-2025350060" >  </polyline><text id="4226e4be-2fd1-4985-a28d-924a3b97a6e9" x="2314.6269" y="-389.2622" transform = "rotate(0 2314.6269 -389.2622)" class="cls-1195165870" > SF-3 </text><polyline id="713e70c5-6dd6-419e-a5e5-6117bfebffb6" points="2102.9457 -316.4525 2245.9163 -169.0997 2388.8868 -21.7469 2407.5114 -54.3398 2426.1359 -86.9327 2422.0275 -470.3787 2417.9192 -853.8247 2260.4324 -585.1386 2102.9457 -316.4525 "  class="cls-2025350060" >  </polyline><text id="bcdbc7c7-e98f-4e99-bc94-b157578c029e" x="2021.3985" y="294.8991" transform = "rotate(0 2021.3985 294.8991)" class="cls-1195165870" > SF-3 </text><polyline id="17ed80a7-9d61-48d5-874a-435075263916" points="1705.8052 465.2296 1884.1076 566.0211 2062.41 666.8126 2186.4821 443.8661 2310.5543 220.9197 2173.8832 39.0567 2037.2121 -142.8062 1871.5086 161.2117 1705.8052 465.2296 "  class="cls-2025350060" >  </polyline><text id="22468997-f57f-44c5-8825-ee6dece1d89c" x="2094.9435" y="1444.0395" transform = "rotate(0 2094.9435 1444.0395)" class="cls-1195165870" > SF-3 </text><polyline id="f1161207-3f2d-446d-80b2-428e872ed178" points="1673.4862 1381.1177 2059.9449 1585.9874 2446.4037 1790.8572 2444.4865 1617.4848 2442.5693 1444.1124 2298.777 1375.6399 2154.9848 1307.1674 1982.4341 1216.7837 1809.8834 1126.4 1741.6848 1253.7589 1673.4862 1381.1177 "  class="cls-2025350060" >  </polyline><text id="d03aa449-a564-4e8a-bbc0-32ba86c564a7" x="2166.0066" y="1114.4317" transform = "rotate(0 2166.0066 1114.4317)" class="cls-1195165870" > SF-3 </text><polyline id="30d7d711-478b-4cb0-a425-bb6f79e616f8" points="1809.8834 1126.4 1982.4341 1216.7837 2154.9848 1307.1674 2298.777 1375.6399 2442.5693 1444.1124 2440.3782 1242.5294 2438.187 1040.9463 2368.8929 1002.6017 2299.5987 964.2571 2144.577 884.0074 1989.5552 803.7576 1899.7193 965.0788 1809.8834 1126.4 "  class="cls-2025350060" >  </polyline><text id="c32944df-07cf-4a1e-a93f-01816a0da22c" x="-505.0349" y="-650.7809" transform = "rotate(0 -505.0349 -650.7809)" class="cls-1195165870" > SF-3 </text><polyline id="3537b688-1bb5-4f0b-8eda-94f644f5b1fe" points="-525.3028 -565.1446 -494.0793 -620.7443 -462.8558 -676.344 -494.901 -693.599 -526.9461 -710.8541 -526.1244 -637.9994 -525.3028 -565.1446 "  class="cls-2025350060" >  </polyline><text id="bc3008b2-5150-48a9-8417-7b9b45b4e4fa" x="360.0149" y="1608.1473" transform = "rotate(0 360.0149 1608.1473)" class="cls-1195165870" > SF-3 </text><polyline id="0ce9f625-da23-4765-9562-ee1740285c03" points="-496.2704 2097.614 798.6815 2083.6456 2093.6334 2069.6772 1233.3449 1605.7075 373.0564 1141.7379 -69.5498 896.6063 -512.156 651.4748 -504.2132 1374.5444 -496.2704 2097.614 "  class="cls-2025350060" >  </polyline><text id="73fed898-5724-485c-8842-e95644baf37e" x="251.0096" y="-690.3413" transform = "rotate(0 251.0096 -690.3413)" class="cls-1195165870" > SF-3 </text><polyline id="54d4e825-d009-4a6a-835f-9d8c8958afa8" points="-101.321 -486.2643 73.4208 -391.2245 248.1626 -296.1846 319.9218 -423.8174 391.681 -551.4501 512.4664 -774.6705 633.2519 -997.8908 405.6493 -995.4258 178.0468 -992.9608 38.3629 -739.6126 -101.321 -486.2643 "  class="cls-2025350060" >  </polyline><text id="2ba615de-da10-4c9b-9a40-c13dfc587584" x="1805.4163" y="-870.7006" transform = "rotate(0 1805.4163 -870.7006)" class="cls-1195165870" > SF-3 </text><polyline id="4d2f2a70-1652-4f6b-a958-f9a22fd33923" points="1579.268 -908.0549 1698.1363 -759.3326 1817.0045 -610.6104 1936.6944 -811.9195 2056.3844 -1013.2287 1846.3107 -1011.0375 1636.2371 -1008.8464 1607.7526 -958.4507 1579.268 -908.0549 "  class="cls-2025350060" >  </polyline><text id="2cfff530-0495-4304-a8a5-62c63167f287" x="-153.551" y="-781.9699" transform = "rotate(0 -153.551 -781.9699)" class="cls-1195165870" > SF-3 </text><polyline id="b46d4778-b6f9-47ee-90d4-0c6fecce9aa4" points="-462.8558 -676.344 -284.5535 -581.3041 -106.2511 -486.2643 -103.7861 -486.2643 -101.321 -486.2643 38.3629 -739.6126 178.0468 -992.9608 -58.3203 -990.4958 -294.6874 -988.0308 -378.7716 -832.1874 -462.8558 -676.344 "  class="cls-2025350060" >  </polyline><text id="a1e99e9f-35b5-45e6-8bf9-330c3a7d49e7" x="658.0467" y="-598.8304" transform = "rotate(0 658.0467 -598.8304)" class="cls-1195165870" > SF-3 </text><polyline id="16cdbf98-ecf8-475c-a9e5-c1880b2d5e37" points="248.1626 -296.1846 427.8344 -200.0493 607.5063 -103.9139 856.1984 -553.6412 1104.8905 -1003.3686 869.0712 -1000.6297 633.2519 -997.8908 512.4664 -774.6705 391.681 -551.4501 319.9218 -423.8174 248.1626 -296.1846 "  class="cls-2025350060" >  </polyline><text id="89cea820-a389-43a5-a92a-4a418c3301af" x="1031.1228" y="119.9456" transform = "rotate(0 1031.1228 119.9456)" class="cls-1195165870" > SF-3 </text><polyline id="174989c7-cec2-498a-9d68-30dd3cd3ef9a" points="976.1622 90.0003 977.2578 91.3697 978.3533 92.7392 1058.6031 134.9182 1138.8529 177.0973 1057.5075 133.5488 976.1622 90.0003 "  class="cls-2025350060" >  </polyline><text id="22224c20-4c4c-4912-b359-84c34ff28fcc" x="1031.1228" y="119.9456" transform = "rotate(0 1031.1228 119.9456)" class="cls-1195165870" > SF-3 </text><polyline id="12b43d9e-797c-4cbd-9696-ea55fb3a6df8" points="976.1622 90.0003 977.2578 91.3697 978.3533 92.7392 1058.6031 134.9182 1138.8529 177.0973 1057.5075 133.5488 976.1622 90.0003 "  class="cls-2025350060" >  </polyline><polyline id="35a6fc38-1bc1-4a5b-afcf-b7f329fafb8c" points="-672.129 514.1633 924.2508 1353.3178 1722.4407 1772.8951 2121.5357 1982.6837 2321.0831 2087.578 2370.97 2113.8016 2395.9135 2126.9134 2399.0314 2128.5524 2399.2263 2128.6548 2399.3237 2128.706 2399.4172 2128.7446 2399.622 2128.3548 2400.0318 2127.5753 2400.8513 2126.0164 2404.1292 2119.7805 2410.6851 2107.3088 2463.1323 2007.5351 2515.5794 1907.7613 2522.1353 1895.2896 2525.4133 1889.0537 2526.2328 1887.4948 2526.6425 1886.7153 2526.8474 1886.3256 2526.7626 1886.2704 2526.6652 1886.2192 2526.4703 1886.1167 2523.3524 1884.4778 2498.409 1871.366 2448.5221 1845.1424 2248.9746 1740.2481 1849.8797 1530.4594 1051.6898 1110.8822 -544.69 271.7276 -608.4095 392.9454 -672.129 514.1633 "  class="cls-200358875" >  </polyline><polyline id="be152954-369e-4575-ba67-5c708f373a80" points="-664.7315 511.8633 2397.1129 2121.3554 2519.4543 1888.6172 -542.3901 279.1251 -664.7315 511.8633 "  class="cls-1289829339" >  </polyline><path id ="1619c82e-78b6-4a36-b6ce-36aaa5ba351a" d = " M -677.2265 523.8607  C -165.1155 793.0575 346.1865 1061.829 858.4998 1331.1321  C 1370.8131 1600.4352 1884.1376 1870.2699 2391.2054 2136.8155  C 2392.518 2137.5055 2393.8307 2138.1955 2394.2826 2138.433  C 2394.7346 2138.6704 2394.326 2138.4554 2394.284 2138.4331  C 2394.263 2138.4219 2394.3337 2138.4589 2394.3677 2138.4766  C 2394.4018 2138.4943 2394.3992 2138.4928 2394.4016 2138.4938  C 2394.4066 2138.496 2394.4319 2138.5088 2394.4532 2138.5195  C 2394.4746 2138.5302 2394.492 2138.5387 2394.5104 2138.5477  C 2394.5289 2138.5567 2394.5484 2138.5661 2394.5677 2138.5755  C 2394.6063 2138.5941 2394.6444 2138.6122 2394.683 2138.6302  C 2394.7217 2138.6483 2394.7609 2138.6663 2394.7989 2138.6836  C 2394.8369 2138.7009 2394.8738 2138.7174 2394.9154 2138.7356  C 2394.9569 2138.7538 2395.0032 2138.7737 2395.0324 2138.7862  C 2395.0616 2138.7987 2395.0738 2138.8038 2395.0848 2138.8084  C 2395.2026 2138.8574 2395.178 2138.8469 2395.1734 2138.8451  C 2395.1688 2138.8433 2395.1841 2138.8502 2395.1967 2138.8547  C 2395.2093 2138.8593 2395.2192 2138.8615 2395.2201 2138.8644  C 2395.2211 2138.8672 2395.2131 2138.8708 2395.3545 2138.9234  C 2395.6122 2139.0194 2396.3656 2139.2783 2397.0558 2139.4426  C 2397.746 2139.607 2398.373 2139.6766 2399.0397 2139.6937  C 2399.7063 2139.7107 2400.4127 2139.6753 2401.1085 2139.5688  C 2401.8043 2139.4624 2402.4896 2139.2849 2403.1532 2139.0435  C 2403.8168 2138.802 2404.4587 2138.4965 2405.0594 2138.1357  C 2405.3597 2137.9554 2405.6497 2137.7612 2405.9279 2137.5557  C 2406.2061 2137.3501 2406.4726 2137.1333 2406.7269 2136.905  C 2406.9812 2136.6768 2407.2234 2136.4371 2407.4486 2136.1958  C 2407.6739 2135.9545 2407.8824 2135.7116 2408.0884 2135.4405  C 2408.2944 2135.1693 2408.4981 2134.8699 2408.6277 2134.6828  C 2408.6925 2134.5892 2408.7388 2134.5236 2408.8897 2134.2489  C 2409.0405 2133.9741 2409.2959 2133.4901 2409.5757 2132.9592  C 2411.419 2129.4627 2414.3239 2123.9334 2417.079 2118.6909  C 2419.8341 2113.4484 2422.4395 2108.4927 2425.0656 2103.4972  C 2430.3178 2093.5062 2435.6531 2083.3563 2440.9722 2073.2374  C 2446.2912 2063.1185 2451.594 2053.0306 2456.9009 2042.935  C 2462.2078 2032.8394 2467.5188 2022.736 2472.8297 2012.6326  C 2478.1407 2002.5292 2483.4516 1992.4259 2488.7585 1982.3302  C 2494.0653 1972.2346 2499.3681 1962.1467 2504.6873 1952.0279  C 2510.0064 1941.909 2515.3419 1931.7592 2520.5936 1921.7679  C 2523.2194 1916.7723 2525.8243 1911.8163 2528.5804 1906.5743  C 2531.3366 1901.3324 2534.244 1895.8044 2536.079 1892.3036  C 2536.3576 1891.772 2536.6115 1891.2872 2536.7523 1891.0072  C 2536.8931 1890.7272 2536.9208 1890.6519 2536.9612 1890.5454  C 2537.0419 1890.3325 2537.173 1889.995 2537.2795 1889.6716  C 2537.386 1889.3481 2537.4679 1889.0387 2537.5389 1888.7163  C 2537.61 1888.3939 2537.6701 1888.0585 2537.7139 1887.7196  C 2537.7578 1887.3807 2537.7853 1887.0383 2537.7968 1886.6926  C 2537.8084 1886.3469 2537.8039 1885.9979 2537.7822 1885.6483  C 2537.7387 1884.9489 2537.6264 1884.247 2537.4491 1883.5634  C 2537.2717 1882.8799 2537.0293 1882.2148 2536.7225 1881.5813  C 2536.4156 1880.9478 2536.0443 1880.3459 2535.6523 1879.8064  C 2535.2602 1879.2669 2534.8473 1878.7899 2534.3206 1878.3146  C 2533.7939 1877.8392 2533.1534 1877.3655 2532.9283 1877.2076  C 2532.8048 1877.121 2532.8064 1877.1295 2532.8035 1877.1304  C 2532.8006 1877.1312 2532.7932 1877.1244 2532.7823 1877.1166  C 2532.7714 1877.1088 2532.757 1877.1 2532.7611 1877.1028  C 2532.7652 1877.1056 2532.7877 1877.1199 2532.6806 1877.0507  C 2532.6706 1877.0442 2532.6595 1877.0371 2532.6326 1877.0201  C 2532.6058 1877.0031 2532.5631 1876.9763 2532.5246 1876.9524  C 2532.486 1876.9285 2532.4515 1876.9075 2532.4157 1876.8859  C 2532.3799 1876.8644 2532.3428 1876.8423 2532.3061 1876.8208  C 2532.2693 1876.7992 2532.2328 1876.7781 2532.1955 1876.7568  C 2532.1769 1876.7462 2532.1581 1876.7355 2532.1402 1876.7254  C 2532.1223 1876.7153 2532.1054 1876.7058 2532.0845 1876.6942  C 2532.0637 1876.6827 2532.0388 1876.6692 2532.0341 1876.6663  C 2532.0317 1876.6648 2532.0344 1876.666 2532.0007 1876.6482  C 2531.9671 1876.6303 2531.8971 1876.5934 2531.9179 1876.6041  C 2531.9595 1876.6257 2532.3643 1876.8383 2531.9165 1876.6028  C 2531.4688 1876.3673 2530.1685 1875.6838 2528.8681 1875.0002  C 2277.6944 1742.9679 2020.3983 1607.7174 1763.997 1472.9373  C 1507.5958 1338.1571 1252.0893 1203.8474 996.1868 1069.3294  C 868.2356 1002.0705 740.1854 934.7594 612.2023 867.4837  C 484.2192 800.208 356.3033 732.9676 228.2707 665.6659  C 100.2381 598.3641 -27.9112 531.0011 -155.5177 463.9233  C -219.321 430.3844 -282.9886 396.9169 -347.6267 362.9391  C -412.2648 328.9614 -477.8735 294.4734 -535.8801 263.9817  C -537.4914 263.1348 -539.0968 262.2908 -539.6462 262.0021  C -540.1956 261.7135 -539.689 261.98 -539.6323 262.01  C -539.604 262.025 -539.6881 261.981 -539.7273 261.9605  C -539.7664 261.9401 -539.7607 261.9433 -539.7611 261.9433  C -539.762 261.9432 -539.7879 261.93 -539.809 261.9194  C -539.83 261.9089 -539.8463 261.9009 -539.8638 261.8923  C -539.8813 261.8838 -539.9001 261.8746 -539.9187 261.8656  C -539.956 261.8475 -539.9928 261.83 -540.0299 261.8126  C -540.067 261.7952 -540.1044 261.7778 -540.1419 261.7607  C -540.1795 261.7435 -540.2172 261.7266 -540.255 261.7098  C -540.2929 261.6931 -540.331 261.6765 -540.3692 261.6601  C -540.4075 261.6436 -540.4459 261.6274 -540.4845 261.6114  C -540.5616 261.5793 -540.6395 261.548 -540.718 261.5174  C -540.7965 261.4869 -540.8757 261.4571 -540.9555 261.4282  C -541.0354 261.3992 -541.1158 261.3711 -541.197 261.3438  C -541.2781 261.3165 -541.3598 261.2901 -541.4422 261.2645  C -541.6068 261.2134 -541.7739 261.1658 -541.9433 261.1219  C -542.1126 261.0781 -542.2841 261.038 -542.4576 261.0019  C -542.8045 260.9297 -543.1594 260.8734 -543.52 260.8347  C -543.8805 260.796 -544.2467 260.7748 -544.6159 260.7723  C -544.9852 260.7698 -545.3575 260.786 -545.7299 260.8215  C -546.1024 260.857 -546.475 260.9118 -546.8448 260.986  C -547.2146 261.0602 -547.5815 261.1537 -547.9426 261.266  C -548.3037 261.3783 -548.659 261.5093 -549.0057 261.6578  C -549.3523 261.8064 -549.6904 261.9725 -550.0173 262.1545  C -550.3442 262.3364 -550.6601 262.5341 -550.9628 262.7456  C -551.2656 262.957 -551.5552 263.1821 -551.8302 263.4184  C -551.9677 263.5366 -552.1016 263.6575 -552.2317 263.781  C -552.3618 263.9045 -552.4881 264.0304 -552.6105 264.1585  C -552.7329 264.2866 -552.8514 264.4168 -552.9661 264.549  C -553.0807 264.6813 -553.1916 264.8156 -553.298 264.9506  C -553.4044 265.0856 -553.5064 265.2213 -553.606 265.3613  C -553.7057 265.5014 -553.8029 265.6458 -553.8902 265.7793  C -553.9775 265.9128 -554.0549 266.0354 -554.1506 266.2028  C -554.2462 266.3702 -554.36 266.5824 -555.5358 268.8167  C -557.8875 273.2853 -564.4871 285.8425 -570.3173 296.9345  C -576.1475 308.0266 -581.2083 317.6536 -586.3673 327.4676  C -596.6852 347.0956 -607.396 367.4718 -618.1069 387.8479  C -628.8179 408.224 -639.5289 428.6 -649.8465 448.2283  C -655.0052 458.0424 -660.0656 467.6696 -665.8965 478.7613  C -671.7275 489.8529 -678.3289 502.4091 -680.6764 506.8799  C -681.8501 509.1154 -681.9604 509.3294 -682.044 509.5031  C -682.1277 509.6768 -682.1848 509.8101 -682.2452 509.9577  C -682.3057 510.1053 -682.3696 510.2673 -682.4284 510.4288  C -682.4873 510.5902 -682.5412 510.7512 -682.5921 510.9154  C -682.6429 511.0796 -682.6907 511.247 -682.7347 511.4165  C -682.7786 511.5859 -682.8186 511.7574 -682.8547 511.9308  C -682.8908 512.1043 -682.9229 512.2797 -682.9509 512.4569  C -682.9788 512.6341 -683.0026 512.8129 -683.0219 512.9932  C -683.0607 513.3537 -683.0818 513.7199 -683.0843 514.0892  C -683.0868 514.4584 -683.0706 514.8307 -683.0351 515.2032  C -682.9996 515.5756 -682.9448 515.9482 -682.8706 516.318  C -682.7964 516.6878 -682.7029 517.0548 -682.5906 517.4159  C -682.4783 517.777 -682.3473 518.1322 -682.1988 518.4789  C -682.0502 518.8256 -681.8842 519.1637 -681.7022 519.4906  C -681.3383 520.1444 -680.9108 520.7534 -680.4382 521.3034  C -679.9656 521.8535 -679.448 522.3445 -678.906 522.7712  C -678.3641 523.198 -677.7979 523.5605 -677.2265 523.8607 "  class="cls-1834564571" >  </path><text id="5cd7e566-9de3-47c0-a883-a82c87bdd396" x="513.2902" y="967.6452" transform = "rotate(27.877076 513.2902 967.6452)" class="cls-1334442105" > Enfield Rd </text><polyline id="efedae0f-7604-4be3-b72c-e53dac2ccf0a" points="957.0704 621.7605 1013.1435 515.0888 1119.8152 571.1619 1033.1567 736.0182 926.485 679.945 842.3753 839.9525 735.7036 783.8794 850.3987 565.6873 957.0704 621.7605 "  class="cls-1938171064" >  </polyline><polyline id="708f6ed1-18c4-4285-9dfd-1363067d8e6a" points="967.3861 837.5923 968.6605 835.1679 881.3837 789.2899 880.1093 791.7143 870.4119 786.6167 926.485 679.945 1033.1567 736.0182 977.0835 842.6898 967.3861 837.5923 "  class="cls-1670798537" >  </polyline><polyline id="a77f3d3b-512b-49ec-b7fa-a8d24d6dfd3c" points="897.3249 1029.7386 895.0099 1028.3727 892.84 1026.7865 890.8361 1024.9953 889.0173 1023.0162 887.4013 1020.8685 886.0036 1018.5727 884.8376 1016.1509 883.9147 1013.6265 883.2436 1011.0238 882.8308 1008.3678 882.6804 1005.6842 882.7937 1002.9988 883.1697 1000.3374 883.8048 997.7257 884.6928 995.1887 885.8252 992.7511 938.7124 892.1403 965.1559 841.8349 968.4614 835.5467 968.5647 835.3502 968.6163 835.252 968.6422 835.2028 968.6551 835.1783 968.6583 835.1721 968.6586 835.1669 968.6463 835.1605 968.2533 834.9539 967.4673 834.5407 965.8952 833.7143 962.7511 832.0616 950.1748 825.4507 925.0221 812.2289 899.8694 799.0071 887.293 792.3962 884.149 790.7435 882.5769 789.9171 881.7909 789.504 881.3979 789.2974 881.3856 789.2909 881.3815 789.2941 881.3782 789.3003 881.3653 789.3248 881.3395 789.3739 881.2878 789.4722 881.1846 789.6687 877.8791 795.9569 851.4355 846.2623 798.5484 946.8731 797.1825 949.188 795.5963 951.3579 793.8051 953.3619 791.826 955.1806 789.6783 956.7966 787.3824 958.1943 784.9607 959.3603 782.4363 960.2833 779.8336 960.9543 777.1776 961.3671 774.494 961.5175 771.8086 961.4042 769.1472 961.0282 766.5354 960.3931 763.9985 959.5051 761.5609 958.3727 829.4429 994.0556 897.3249 1029.7386 "  class="cls-2112947923" >  </polyline><polyline id="d7c7b48d-dd94-48e5-8337-c2410172f13a" points="897.3249 1029.7386 895.0099 1028.3727 892.84 1026.7865 890.8361 1024.9953 889.0173 1023.0162 887.4013 1020.8685 886.0036 1018.5727 884.8376 1016.1509 883.9147 1013.6265 883.2436 1011.0238 882.8308 1008.3678 882.6804 1005.6842 882.7937 1002.9988 883.1697 1000.3374 883.8048 997.7257 884.6928 995.1887 885.8252 992.7511 938.7124 892.1403 965.1559 841.8349 968.4614 835.5467 968.5647 835.3502 968.6163 835.252 968.6422 835.2028 968.6551 835.1783 968.6583 835.1721 968.6586 835.1669 968.6463 835.1605 968.2533 834.9539 967.4673 834.5407 965.8952 833.7143 962.7511 832.0616 950.1748 825.4507 925.0221 812.2289 899.8694 799.0071 887.293 792.3962 884.149 790.7435 882.5769 789.9171 881.7909 789.504 881.3979 789.2974 881.3856 789.2909 881.3815 789.2941 881.3782 789.3003 881.3653 789.3248 881.3395 789.3739 881.2878 789.4722 881.1846 789.6687 877.8791 795.9569 851.4355 846.2623 798.5484 946.8731 797.1825 949.188 795.5963 951.3579 793.8051 953.3619 791.826 955.1806 789.6783 956.7966 787.3824 958.1943 784.9607 959.3603 782.4363 960.2833 779.8336 960.9543 777.1776 961.3671 774.494 961.5175 771.8086 961.4042 769.1472 961.0282 766.5354 960.3931 763.9985 959.5051 761.5609 958.3727 829.4429 994.0556 897.3249 1029.7386 "  class="cls-2122683834" >  </polyline><polyline id="50d2d48d-3148-409b-8777-42c3e476058b" points="970.9001 724.9521 925.0221 812.2289 "  class="cls-745094107" >  </polyline><polyline id="7f98a6f1-72ed-411c-9061-388837f9407c" points="968.6605 835.1679 1014.5385 747.8911 "  class="cls-745094107" >  </polyline><polyline id="a96cef14-7e95-4914-8cae-c99728bb6243" points="1014.5385 747.8911 970.9001 724.9521 "  class="cls-745094107" >  </polyline><polyline id="367cbe02-2930-42de-9315-960f1b981705" points="968.6605 835.1679 992.7193 736.4216 "  class="cls-858519192" >  </polyline><polyline id="1e2b0622-994c-491a-9f93-19b60daa00d7" points="925.0221 812.2289 992.7193 736.4216 "  class="cls-858519192" >  </polyline><polyline id="374e47c9-be18-4ef2-9aca-8a3f5b9fc4ed" points="925.0221 812.2289 946.8413 823.6984 968.6605 835.1679 991.5995 791.5295 1014.5385 747.8911 992.7193 736.4216 970.9001 724.9521 947.9611 768.5905 925.0221 812.2289 "  class="cls-40528454" >  </polyline><polyline id="9dcf31a2-7eac-42cc-a492-b3783ed95a8d" points="925.0221 812.2289 970.9001 724.9521 "  class="cls-745094107" >  </polyline><polyline id="991cd9fd-b070-4326-9901-e969e479e26f" points="927.2617 702.0131 881.3837 789.2899 "  class="cls-745094107" >  </polyline><polyline id="c49c545e-9e18-4649-a9e9-88b303e209f0" points="970.9001 724.9521 927.2617 702.0131 "  class="cls-745094107" >  </polyline><polyline id="e393129c-94fa-4235-b267-1aecc77688a3" points="925.0221 812.2289 949.0809 713.4826 "  class="cls-858519192" >  </polyline><polyline id="d8531eef-316d-486c-800e-819c8dea36a0" points="881.3837 789.2899 949.0809 713.4826 "  class="cls-858519192" >  </polyline><polyline id="fe097dd9-9874-45fe-891f-a1872a6d4313" points="881.3837 789.2899 903.2029 800.7594 925.0221 812.2289 947.9611 768.5905 970.9001 724.9521 949.0809 713.4826 927.2617 702.0131 904.3227 745.6515 881.3837 789.2899 "  class="cls-40528454" >  </polyline><polyline id="07031166-b844-4766-9c04-88adf5656743" points="650.7568 745.4147 812.455 448.2089 974.1531 151.0032 1128.0988 233.0602 1282.0445 315.1173 1118.5423 610.2409 955.0402 905.3646 802.8985 825.3896 650.7568 745.4147 "  class="cls-1681576136" >  </polyline><polyline id="79ef463d-f191-4221-87ad-c2cb7211b809" points="897.3249 1029.7386 895.0099 1028.3727 892.84 1026.7865 890.8361 1024.9953 889.0173 1023.0162 887.4013 1020.8685 886.0036 1018.5727 884.8376 1016.1509 883.9147 1013.6265 883.2436 1011.0238 882.8308 1008.3678 882.6804 1005.6842 882.7937 1002.9988 883.1697 1000.3374 883.8048 997.7257 884.6928 995.1887 885.8252 992.7511 938.7124 892.1403 965.1559 841.8349 968.4614 835.5467 968.5647 835.3502 968.6163 835.252 968.6422 835.2028 968.6551 835.1783 968.6583 835.1721 968.6586 835.1669 968.6463 835.1605 968.2533 834.9539 967.4673 834.5407 965.8952 833.7143 962.7511 832.0616 950.1748 825.4507 925.0221 812.2289 899.8694 799.0071 887.293 792.3962 884.149 790.7435 882.5769 789.9171 881.7909 789.504 881.3979 789.2974 881.3856 789.2909 881.3815 789.2941 881.3782 789.3003 881.3653 789.3248 881.3395 789.3739 881.2878 789.4722 881.1846 789.6687 877.8791 795.9569 851.4355 846.2623 798.5484 946.8731 797.1825 949.188 795.5963 951.3579 793.8051 953.3619 791.826 955.1806 789.6783 956.7966 787.3824 958.1943 784.9607 959.3603 782.4363 960.2833 779.8336 960.9543 777.1776 961.3671 774.494 961.5175 771.8086 961.4042 769.1472 961.0282 766.5354 960.3931 763.9985 959.5051 761.5609 958.3727 829.4429 994.0556 897.3249 1029.7386 "  class="cls-745094107" >  </polyline><polyline id="77c7400d-23a8-4afb-8a27-8655cbe38e97" points="1332.767 280.0799 939.461 990.0028 "  class="cls-1600544202" >  </polyline><polyline id="67970fe0-4877-40a0-aae2-cb3085e4fef2" points="939.461 990.0028 587.2384 804.8532 "  class="cls-1600544202" >  </polyline><polyline id="ac7a93d5-bab9-41f0-b773-a349dc168d93" points="587.2384 804.8532 976.1622 90.0003 "  class="cls-1600544202" >  </polyline><polyline id="a2e8e09d-5c28-4b33-b7b9-fadfe03af1e5" points="976.1622 90.0003 1332.767 280.0799 "  class="cls-1600544202" >  </polyline><defs><style> .cls-2025868929{stroke:#D4D2D2 ; stroke-opacity:1; stroke-width:0.5; fill:White ; fill-opacity:1; } </style><style> .cls-1195165870{stroke:none; stroke-linecap:round; stroke-linejoin:round; fill:#D4D2D2 ; fill-opacity:1; font-family: Arial; font-size:8px; text-anchor:middle; dominant-baseline:middle; } </style><style> .cls-2025350060{stroke:#D4D2D2 ; stroke-opacity:1; stroke-width:0.5; stroke-linecap:square; stroke-linejoin:bevel; fill:none; } </style><style> .cls-200358875{stroke:Black ; stroke-opacity:1; stroke-width:1.5; fill:none; } </style><style> .cls-1289829339{stroke:Black ; stroke-opacity:1; stroke-width:0.75; fill:none; } </style><style> .cls-1834564571{stroke:Black ; stroke-opacity:1; stroke-width:0.5; fill:none; } </style><style> .cls-1334442105{stroke:none; stroke-linecap:round; stroke-linejoin:round; fill:Black ; fill-opacity:1; font-family: Arial; font-size:25px; font-weight:bold; text-anchor:middle; dominant-baseline:middle; } </style><style> .cls-1938171064{stroke:#000000 ; stroke-opacity:1; stroke-width:2; fill:#FDB454 ; fill-opacity:1; } </style><style> .cls-1670798537{stroke:#000000 ; stroke-opacity:1; stroke-width:2; fill:#9C9C9C ; fill-opacity:1; } </style><style> .cls-2112947923{stroke:none; stroke-linecap:round; stroke-linejoin:round; fill:#4D4D4D ; fill-opacity:1; } </style><style> .cls-2122683834{stroke:#000000 ; stroke-opacity:1; stroke-width:1; stroke-linecap:square; stroke-linejoin:bevel; fill:none; } </style><style> .cls-745094107{stroke:Black ; stroke-opacity:1; stroke-width:1; fill:none; } </style><style> .cls-858519192{stroke:Black ; stroke-opacity:1; stroke-width:0.5; stroke-dasharray:2; fill:none; } </style><style> .cls-40528454{stroke:none; stroke-linecap:square; stroke-linejoin:bevel; fill:none; } </style><style> .cls-1681576136{stroke:#000000 ; stroke-opacity:1; stroke-width:1; stroke-dasharray:8; stroke-linecap:square; stroke-linejoin:bevel; fill:none; } </style><style> .cls-1600544202{stroke:Black ; stroke-opacity:1; stroke-width:1.7999999999999998; stroke-dasharray:10, 6, 3, 6; stroke-linecap:square; stroke-linejoin:bevel; fill:none; } </style></defs></svg>